<?xml version="1.0" encoding="iso-8859-1"?>
<!-- Uploaded to: SVG Repo, www.svgrepo.com, Generator: SVG Repo Mixer Tools -->
<svg height="800px" width="800px" version="1.1" id="Layer_1" xmlns="http://www.w3.org/2000/svg" xmlns:xlink="http://www.w3.org/1999/xlink" 
	 viewBox="0 0 512.001 512.001" xml:space="preserve">
<path style="fill:#515262;" d="M381.262,350.672c35.529,45.452,82.35,56.251,108.29,92.276s5.047,52.596,5.047,52.596
	s-16.57,20.892-52.596-5.047s-46.825-72.76-92.276-108.289L381.262,350.672z"/>
<polygon style="fill:#C7CFE2;" points="283.45,8.505 9.451,8.505 9.451,476.777 342.036,476.777 342.036,67.087 "/>
<polygon style="opacity:0.1;enable-background:new    ;" points="188.682,8.505 188.682,161.859 342.036,161.859 342.036,67.086 
	283.45,8.505 "/>
<polygon style="fill:#DCE5FA;" points="222.697,8.505 222.697,127.844 342.036,127.844 342.036,67.087 283.452,8.503 "/>
<path style="opacity:0.1;enable-background:new    ;" d="M381.262,350.672l-31.537,31.535c14.355,11.221,25.25,23.569,34.579,36.029
	c6.308-4.486,12.288-9.531,17.873-15.115c5.619-5.62,10.645-11.61,15.094-17.887C404.817,375.91,392.477,365.019,381.262,350.672z"
	/>
<circle style="fill:#7DD2F0;" cx="304.278" cy="305.218" r="104.434"/>
<circle style="fill:#FFFFFF;" cx="304.278" cy="305.218" r="73.844"/>
<path style="opacity:0.1;enable-background:new    ;" d="M272.47,267.747c22.88-22.881,57.032-27.588,84.573-14.16
	c-0.187-0.19-0.362-0.39-0.551-0.579c-28.838-28.838-75.593-28.838-104.431,0c-28.838,28.838-28.838,75.593,0,104.43
	c5.957,5.957,12.687,10.664,19.857,14.16C243.648,342.717,243.822,296.395,272.47,267.747z"/>
<path d="M304.266,222.875c-21.996,0-42.675,8.566-58.228,24.118c-32.106,32.107-32.106,84.35,0,116.457
	c15.555,15.553,36.233,24.118,58.228,24.118c21.996,0,42.675-8.566,58.228-24.118c32.106-32.107,32.106-84.35,0-116.457
	C346.94,231.441,326.262,222.875,304.266,222.875z M350.468,351.424c-12.341,12.341-28.749,19.138-46.202,19.138
	c-17.454,0-33.861-6.797-46.202-19.138c-25.476-25.475-25.476-66.928,0-92.403c12.341-12.341,28.749-19.138,46.202-19.138
	c17.454,0,33.861,6.797,46.202,19.138C375.944,284.496,375.944,325.948,350.468,351.424z"/>
<path d="M332.004,296.719h-55.478c-4.697,0-8.503,3.806-8.503,8.503s3.806,8.503,8.503,8.503h55.478
	c4.697,0,8.503-3.806,8.503-8.503S336.701,296.719,332.004,296.719z"/>
<path d="M80.376,468.274H17.943V93.453c0-4.697-3.806-8.503-8.503-8.503s-8.503,3.806-8.503,8.503v383.324
	c0,4.697,3.806,8.503,8.503,8.503h70.936c4.697,0,8.503-3.806,8.503-8.503S85.072,468.274,80.376,468.274z"/>
<path d="M496.441,437.979c-13.388-18.592-31.444-30.579-50.562-43.268c-14.596-9.689-29.639-19.69-43.599-33.322
	c7.04-12.252,11.726-25.759,13.775-40.058c3.366-23.491-0.852-47.928-11.875-68.811c-2.194-4.153-7.338-5.744-11.49-3.551
	c-4.153,2.193-5.743,7.337-3.551,11.49c9.362,17.735,12.941,38.496,10.081,58.461c-2.016,14.074-7.026,27.255-14.696,38.907
	c-0.026,0.039-0.057,0.073-0.083,0.111c-11.413,17.365-28.619,30.836-48.22,37.727c-0.085,0.029-0.168,0.062-0.253,0.092
	c-29.221,10.123-62.626,5.249-87.775-12.734c-24.822-17.748-39.861-47.182-39.861-77.8c0-25.625,9.98-49.716,28.099-67.835
	c26.564-26.565,67.502-35.182,102.534-21.602c11.844,4.595,22.76,11.543,32.125,20.644c3.37,3.274,8.753,3.196,12.024-0.17
	c3.274-3.368,3.196-8.752-0.17-12.024c-9.59-9.32-20.553-16.734-32.418-22.068V67.086c0-2.255-0.896-4.417-2.491-6.014L289.451,2.49
	C287.857,0.896,285.695,0,283.439,0H9.44C4.742,0,0.936,3.806,0.936,8.503v50.936c0,4.697,3.806,8.503,8.503,8.503
	s8.503-3.806,8.503-8.503V17.007h196.239v110.837c0,4.697,3.806,8.503,8.503,8.503h110.835v59.769
	c0-0.653-10.135-2.212-11.163-2.376c-35.586-5.708-72.463,6.133-97.952,31.622c-21.331,21.332-33.08,49.694-33.08,79.862
	c0,30.168,11.747,58.529,33.08,79.861c21.026,21.026,50.178,33.062,79.909,33.062c9.756,0,19.581-1.264,29.207-3.844v53.972H114.39
	c-4.697,0-8.503,3.806-8.503,8.503s3.806,8.503,8.503,8.503h227.635c4.697,0,8.503-3.806,8.503-8.503v-68.53
	c3.359-1.505,6.66-3.18,9.887-5.028c13.642,13.966,23.646,29.015,33.34,43.618c12.689,19.116,24.676,37.173,43.268,50.561
	c13.456,9.688,26.229,14.602,37.965,14.602c16.328-0.001,31.42-11.32,35.09-27.346C513.278,470.692,508.688,454.99,496.441,437.979z
	 M231.189,119.34V17.007h48.728l53.604,53.6v48.732H231.189V119.34z M489.238,488.927c-0.65,0.474-0.793,0.617-1.265,1.265
	c-0.577,0.626-4.745,4.799-12.985,4.799c-8.094,0-17.524-3.836-28.026-11.397c-16.076-11.576-27.229-28.377-39.037-46.165
	c-9.659-14.551-19.599-29.526-33.225-43.914c0.132-0.105,0.26-0.215,0.39-0.321c3.009-2.425,5.871-5.01,8.628-7.717
	c0.135-0.134,0.274-0.262,0.408-0.397c0.737-0.737,8.723-9.154,8.433-9.428c14.388,13.626,29.363,23.565,43.913,33.225
	c17.788,11.807,34.591,22.961,46.166,39.038C502.561,475.585,490.436,487.829,489.238,488.927z"/>
</svg>